<svg xmlns="http://www.w3.org/2000/svg" xmlns:xlink="http://www.w3.org/1999/xlink" width="56" height="60" viewBox="0 0 56 60" fill="none"><defs><filter id="filter_4" x="-24" y="-24" width="96" height="96" filterUnits="userSpaceOnUse" color-interpolation-filters="sRGB"><feFlood flood-opacity="0" result="BackgroundImageFix"/>
          <feColorMatrix in="SourceAlpha" type="matrix" values="0 0 0 0 0 0 0 0 0 0 0 0 0 0 0 0 0 0 127 0"/>
          <feOffset dx="0" dy="2"/>
          <feGaussianBlur stdDeviation="2"/>
          <feColorMatrix type="matrix" values="0 0 0 0 0 0 0 0 0 0 0 0 0 0 0 0 0 0 0.12 0"/>
          <feBlend mode="normal" in2="BackgroundImageFix" result="effect1_Shadow"/>
          <feBlend mode="normal" in="SourceGraphic" in2="effect1_Shadow" result="shape"/><feFlood flood-opacity="0" result="BackgroundImageFix"/>
          <feBlend mode="normal" in="SourceGraphic" in2="BackgroundImageFix" result="shape"/>
          <feColorMatrix in="SourceAlpha" type="matrix" values="0 0 0 0 0 0 0 0 0 0 0 0 0 0 0 0 0 0 127 0" result="hardAlpha"/>
          <feOffset dx="8" dy="8"/>
          <feGaussianBlur stdDeviation="12"/>
          <feComposite in2="hardAlpha" operator="arithmetic" k2="-1" k3="1"/>
          <feColorMatrix type="matrix" values="0 0 0 0 1 0 0 0 0 1 0 0 0 0 1 0 0 0 1 0"/>
          <feBlend mode="normal" in2="shape" result="effect1_Shadow"/><feFlood flood-opacity="0" result="BackgroundImageFix"/>
          <feBlend mode="normal" in="SourceGraphic" in2="BackgroundImageFix" result="shape"/>
          <feColorMatrix in="SourceAlpha" type="matrix" values="0 0 0 0 0 0 0 0 0 0 0 0 0 0 0 0 0 0 127 0" result="hardAlpha"/>
          <feOffset dx="-4" dy="-4"/>
          <feGaussianBlur stdDeviation="12"/>
          <feComposite in2="hardAlpha" operator="arithmetic" k2="-1" k3="1"/>
          <feColorMatrix type="matrix" values="0 0 0 0 1 0 0 0 0 1 0 0 0 0 1 0 0 0 0.04 0"/>
          <feBlend mode="normal" in2="shape" result="effect1_Shadow"/></filter><filter id="filter_5" x="-10.87" y="-10.87" width="69.74" height="69.74" filterUnits="userSpaceOnUse" color-interpolation-filters="sRGB"><feFlood flood-opacity="0" result="BackgroundImageFix"/>
          <feGaussianBlur in="BackgroundImage" stdDeviation="5.435"/>
          <feComposite in2="SourceAlpha" operator="in" result="effect1_backgroundBlur"/>
          <feBlend mode="normal" in="SourceGraphic" in2="effect1_backgroundBlur" result="shape"/></filter><filter id="filter_7" x="0" y="0" width="56.83" height="60.48" filterUnits="userSpaceOnUse" color-interpolation-filters="sRGB"><feFlood flood-opacity="0" result="BackgroundImageFix"/>
          <feBlend mode="normal" in="SourceGraphic" in2="BackgroundImageFix" result="shape"/>
          <feGaussianBlur stdDeviation="5.435" result="effect1_foregroundBlur" /></filter><filter id="filter_8" x="10.15" y="5.369999999999999" width="28.53" height="46.63" filterUnits="userSpaceOnUse" color-interpolation-filters="sRGB"><feFlood flood-opacity="0" result="BackgroundImageFix"/>
          <feColorMatrix in="SourceAlpha" type="matrix" values="0 0 0 0 0 0 0 0 0 0 0 0 0 0 0 0 0 0 127 0"/>
          <feOffset dx="0" dy="-2"/>
          <feGaussianBlur stdDeviation="2"/>
          <feColorMatrix type="matrix" values="0 0 0 0 1 0 0 0 0 1 0 0 0 0 1 0 0 0 1 0"/>
          <feBlend mode="normal" in2="BackgroundImageFix" result="effect1_Shadow"/>
          <feBlend mode="normal" in="SourceGraphic" in2="effect1_Shadow" result="shape"/></filter></defs><g opacity="1" transform="translate(4 2)  rotate(0 24 24)"><path id="Logo" fill-rule="evenodd" style="fill:#1877F2" transform="translate(14.15 9.37)  rotate(0 10.265 19.315)" opacity="1" d="M19.18,21.57L20.25,14.63L13.59,14.63L13.59,10.12C13.59,8.23 14.52,6.38 17.5,6.38L20.53,6.38L20.53,0.47C20.53,0.47 17.78,0 15.16,0C9.68,0 6.09,3.32 6.09,9.34L6.09,14.63L0,14.63L0,21.57L6.09,21.57L6.09,38.34C7.32,38.53 8.57,38.63 9.84,38.63C11.12,38.63 12.37,38.53 13.59,38.34L13.59,21.57L19.18,21.57Z " /><g id="Box" filter="url(#filter_5)"><g id="Box" filter="url(#filter_4)"><path id="Box" fill-rule="evenodd" style="fill:#FFFFFF" transform="translate(0 0)  rotate(0 24 24)" opacity="0.53" d="M12,48L36,48C42.63,48 48,42.63 48,36L48,12C48,5.37 42.63,0 36,0L12,0C5.37,0 0,5.37 0,12L0,36C0,42.63 5.37,48 12,48Z " /></g></g><g id="Logo" filter="url(#filter_7)"><path id="Logo" fill-rule="evenodd" style="fill:#1877F2" transform="translate(18.15 13.37)  rotate(0 10.265 16.87)" opacity="0.5296" d="M19.18,21.57L20.25,14.63L13.59,14.63L13.59,10.12C13.59,8.23 14.52,6.38 17.5,6.38L20.53,6.38L20.53,0.47C20.53,0.47 17.78,0 15.16,0C9.68,0 6.09,3.32 6.09,9.34L6.09,14.63L0,14.63L0,21.57L6.09,21.57L6.09,33.74L13.59,33.63L13.59,21.57L19.18,21.57Z " /></g><g id="Logo" filter="url(#filter_8)"><path id="Logo" fill-rule="evenodd" style="fill:#1877F2" transform="translate(14.15 9.37)  rotate(0 10.265 19.315)" opacity="1" d="M0,14.63L0,21.57L6.09,21.57L6.09,38.34C7.32,38.53 8.57,38.63 9.84,38.63C11.12,38.63 12.37,38.53 13.59,38.34L13.59,21.57L19.18,21.57L20.25,14.63L13.59,14.63L13.59,10.12C13.59,8.23 14.52,6.38 17.5,6.38L20.53,6.38L20.53,0.47C20.53,0.47 17.78,0 15.16,0C9.68,0 6.09,3.32 6.09,9.34L6.09,14.63L0,14.63Z " /></g></g></svg>