<svg xmlns="http://www.w3.org/2000/svg" xmlns:xlink="http://www.w3.org/1999/xlink" width="58" height="57" viewBox="0 0 58 57" fill="none"><defs><filter id="filter_12" x="-24" y="-24" width="96" height="96" filterUnits="userSpaceOnUse" color-interpolation-filters="sRGB"><feFlood flood-opacity="0" result="BackgroundImageFix"/>
          <feColorMatrix in="SourceAlpha" type="matrix" values="0 0 0 0 0 0 0 0 0 0 0 0 0 0 0 0 0 0 127 0"/>
          <feOffset dx="0" dy="2"/>
          <feGaussianBlur stdDeviation="2"/>
          <feColorMatrix type="matrix" values="0 0 0 0 0 0 0 0 0 0 0 0 0 0 0 0 0 0 0.12 0"/>
          <feBlend mode="normal" in2="BackgroundImageFix" result="effect1_Shadow"/>
          <feBlend mode="normal" in="SourceGraphic" in2="effect1_Shadow" result="shape"/><feFlood flood-opacity="0" result="BackgroundImageFix"/>
          <feBlend mode="normal" in="SourceGraphic" in2="BackgroundImageFix" result="shape"/>
          <feColorMatrix in="SourceAlpha" type="matrix" values="0 0 0 0 0 0 0 0 0 0 0 0 0 0 0 0 0 0 127 0" result="hardAlpha"/>
          <feOffset dx="8" dy="8"/>
          <feGaussianBlur stdDeviation="12"/>
          <feComposite in2="hardAlpha" operator="arithmetic" k2="-1" k3="1"/>
          <feColorMatrix type="matrix" values="0 0 0 0 1 0 0 0 0 1 0 0 0 0 1 0 0 0 1 0"/>
          <feBlend mode="normal" in2="shape" result="effect1_Shadow"/><feFlood flood-opacity="0" result="BackgroundImageFix"/>
          <feBlend mode="normal" in="SourceGraphic" in2="BackgroundImageFix" result="shape"/>
          <feColorMatrix in="SourceAlpha" type="matrix" values="0 0 0 0 0 0 0 0 0 0 0 0 0 0 0 0 0 0 127 0" result="hardAlpha"/>
          <feOffset dx="-4" dy="-4"/>
          <feGaussianBlur stdDeviation="12"/>
          <feComposite in2="hardAlpha" operator="arithmetic" k2="-1" k3="1"/>
          <feColorMatrix type="matrix" values="0 0 0 0 1 0 0 0 0 1 0 0 0 0 1 0 0 0 0.04 0"/>
          <feBlend mode="normal" in2="shape" result="effect1_Shadow"/></filter><filter id="filter_13" x="-10.87" y="-10.87" width="69.74" height="69.74" filterUnits="userSpaceOnUse" color-interpolation-filters="sRGB"><feFlood flood-opacity="0" result="BackgroundImageFix"/>
          <feGaussianBlur in="BackgroundImage" stdDeviation="5.435"/>
          <feComposite in2="SourceAlpha" operator="in" result="effect1_backgroundBlur"/>
          <feBlend mode="normal" in="SourceGraphic" in2="effect1_backgroundBlur" result="shape"/></filter><filter id="filter_17" x="0" y="0" width="46.84" height="41.449999999999996" filterUnits="userSpaceOnUse" color-interpolation-filters="sRGB"><feFlood flood-opacity="0" result="BackgroundImageFix"/>
          <feBlend mode="normal" in="SourceGraphic" in2="BackgroundImageFix" result="shape"/>
          <feGaussianBlur stdDeviation="5.435" result="effect1_foregroundBlur" /></filter><filter id="filter_19" x="0" y="0" width="28" height="51.05" filterUnits="userSpaceOnUse" color-interpolation-filters="sRGB"><feFlood flood-opacity="0" result="BackgroundImageFix"/>
          <feBlend mode="normal" in="SourceGraphic" in2="BackgroundImageFix" result="shape"/>
          <feGaussianBlur stdDeviation="5.435" result="effect1_foregroundBlur" /></filter><filter id="filter_21" x="0" y="0" width="6.95" height="32.01" filterUnits="userSpaceOnUse" color-interpolation-filters="sRGB"><feFlood flood-opacity="0" result="BackgroundImageFix"/>
          <feBlend mode="normal" in="SourceGraphic" in2="BackgroundImageFix" result="shape"/>
          <feGaussianBlur stdDeviation="5.435" result="effect1_foregroundBlur" /></filter><filter id="filter_23" x="0" y="0" width="28.119999999999997" height="12.95" filterUnits="userSpaceOnUse" color-interpolation-filters="sRGB"><feFlood flood-opacity="0" result="BackgroundImageFix"/>
          <feBlend mode="normal" in="SourceGraphic" in2="BackgroundImageFix" result="shape"/>
          <feGaussianBlur stdDeviation="5.435" result="effect1_foregroundBlur" /></filter></defs><g opacity="1" transform="translate(4 2)  rotate(0 24 24)"><g opacity="1" transform="translate(8 8)  rotate(0 15.5 16)"><path id="1" fill-rule="evenodd" style="fill:#4285F4" transform="translate(15.84 13.33)  rotate(0 7.58 7.395)" opacity="1" d="M14.91,0L0,0L0,6.01L8.54,6.01C8.15,7.99 7.03,9.66 5.37,10.79L5.37,14.79L10.46,14.79C13.44,12 15.16,7.9 15.16,3.03C15.16,1.97 15.07,0.97 14.91,0Z " /><path id="2" fill-rule="evenodd" style="fill:#34A853" transform="translate(1.7 19.05)  rotate(0 12.3 6.475)" opacity="1" d="M24.6,9.07L19.51,5.07C18.08,6.03 16.27,6.61 14.13,6.61C10,6.61 6.51,3.8 5.25,0L0,0L0,4.12C2.6,9.35 7.94,12.95 14.13,12.95C18.41,12.95 21.99,11.51 24.6,9.07Z " /><path id="3" fill-rule="evenodd" style="fill:#FBBC05" transform="translate(0 8.83)  rotate(0 3.475 7.175)" opacity="1" d="M6.45,7.18C6.45,6.11 6.63,5.08 6.95,4.12L6.95,0L1.7,0C0.62,2.16 0,4.59 0,7.18C0,9.76 0.62,12.19 1.7,14.35L6.95,10.23C6.62,9.27 6.45,8.24 6.45,7.18Z " /><path id="4" fill-rule="evenodd" style="fill:#EA4335" transform="translate(1.7 0)  rotate(0 12.36 6.475)" opacity="1" d="M20.21,8.74L24.72,4.17C21.99,1.59 18.41,0 14.14,0C7.95,0 2.6,3.6 0,8.83L5.25,12.95C6.51,9.15 10,6.34 14.14,6.34C16.47,6.34 18.56,7.15 20.21,8.74Z " /></g><g id="Box" filter="url(#filter_13)"><g id="Box" filter="url(#filter_12)"><path id="Box" fill-rule="evenodd" style="fill:#FFFFFF" transform="translate(0 0)  rotate(0 24 24)" opacity="0.53" d="M12,48L36,48C42.63,48 48,42.63 48,36L48,12C48,5.37 42.63,0 36,0L12,0C5.37,0 0,5.37 0,12L0,36C0,42.63 5.37,48 12,48Z " /></g></g><g opacity="1" transform="translate(12 12)  rotate(0 15.5 16)"><g id="1" filter="url(#filter_17)"><path id="1" fill-rule="evenodd" style="fill:#4285F4" transform="translate(15.84 13.33)  rotate(0 7.58 7.395)" opacity="0.5289" d="M14.91,0L0,0L0,6.01L8.54,6.01C8.15,7.99 7.03,9.66 5.37,10.79L5.37,14.79L10.46,14.79C13.44,12 15.16,7.9 15.16,3.03C15.16,1.97 15.07,0.97 14.91,0Z " /></g><g id="2" filter="url(#filter_19)"><path id="2" fill-rule="evenodd" style="fill:#34A853" transform="translate(1.7 19.05)  rotate(0 12.3 6.475)" opacity="0.5289" d="M24.6,9.07L19.51,5.07C18.08,6.03 16.27,6.61 14.13,6.61C10,6.61 6.51,3.8 5.25,0L0,0L0,4.12C2.6,9.35 7.94,12.95 14.13,12.95C18.41,12.95 21.99,11.51 24.6,9.07Z " /></g><g id="3" filter="url(#filter_21)"><path id="3" fill-rule="evenodd" style="fill:#FBBC05" transform="translate(0 8.83)  rotate(0 3.475 7.175)" opacity="0.5289" d="M6.45,7.18C6.45,6.11 6.63,5.08 6.95,4.12L6.95,0L1.7,0C0.62,2.16 0,4.59 0,7.18C0,9.76 0.62,12.19 1.7,14.35L6.95,10.23C6.62,9.27 6.45,8.24 6.45,7.18Z " /></g><g id="4" filter="url(#filter_23)"><path id="4" fill-rule="evenodd" style="fill:#EA4335" transform="translate(1.7 0)  rotate(0 12.36 6.475)" opacity="0.5289" d="M20.21,8.74L24.72,4.17C21.99,1.59 18.41,0 14.14,0C7.95,0 2.6,3.6 0,8.83L5.25,12.95C6.51,9.15 10,6.34 14.14,6.34C16.47,6.34 18.56,7.15 20.21,8.74Z " /></g></g><g opacity="1" transform="translate(8 8)  rotate(0 15.5 16)"><path id="1" fill-rule="evenodd" style="fill:#4285F4" transform="translate(15.84 13.33)  rotate(0 7.58 7.395)" opacity="1" d="M14.91,0L0,0L0,6.01L8.54,6.01C8.15,7.99 7.03,9.66 5.37,10.79L5.37,14.79L10.46,14.79C13.44,12 15.16,7.9 15.16,3.03C15.16,1.97 15.07,0.97 14.91,0Z " /><path id="2" fill-rule="evenodd" style="fill:#34A853" transform="translate(1.7 19.05)  rotate(0 12.3 6.475)" opacity="1" d="M24.6,9.07L19.51,5.07C18.08,6.03 16.27,6.61 14.13,6.61C10,6.61 6.51,3.8 5.25,0L0,0L0,4.12C2.6,9.35 7.94,12.95 14.13,12.95C18.41,12.95 21.99,11.51 24.6,9.07Z " /><path id="3" fill-rule="evenodd" style="fill:#FBBC05" transform="translate(0 8.83)  rotate(0 3.475 7.175)" opacity="1" d="M6.45,7.18C6.45,6.11 6.63,5.08 6.95,4.12L6.95,0L1.7,0C0.62,2.16 0,4.59 0,7.18C0,9.76 0.62,12.19 1.7,14.35L6.95,10.23C6.62,9.27 6.45,8.24 6.45,7.18Z " /><path id="4" fill-rule="evenodd" style="fill:#EA4335" transform="translate(1.7 0)  rotate(0 12.36 6.475)" opacity="1" d="M20.21,8.74L24.72,4.17C21.99,1.59 18.41,0 14.14,0C7.95,0 2.6,3.6 0,8.83L5.25,12.95C6.51,9.15 10,6.34 14.14,6.34C16.47,6.34 18.56,7.15 20.21,8.74Z " /></g></g></svg>