<svg xmlns="http://www.w3.org/2000/svg" xmlns:xlink="http://www.w3.org/1999/xlink" width="36" height="39" viewBox="0 0 36 39" fill="none"><g opacity="1" transform="translate(0 2)  rotate(0 18 18.5)"><path id="Union" fill-rule="evenodd" style="fill:#808080" transform="translate(0 -2)  rotate(0 15 15)" opacity="1" d="M15 30C6.72 30 0 23.28 0 15C0 6.72 6.72 0 15 0C23.28 0 30 6.72 30 15C30 23.28 23.28 30 15 30ZM13.24 5.93C13.62 4.79 14.04 3.98 14.43 3.49C14.53 3.35 14.79 3 15 3C15.21 3 15.47 3.35 15.57 3.49C15.96 3.98 16.38 4.79 16.76 5.93C17.06 6.83 17.32 7.9 17.52 9.08C15.88 8.98 14.12 8.98 12.48 9.08C12.68 7.9 12.94 6.83 13.24 5.93ZM9.39 9.39C9.63 7.75 9.97 6.26 10.39 4.98C10.54 4.55 10.7 4.13 10.87 3.73C7.56 4.94 4.94 7.56 3.73 10.87C4.13 10.7 4.55 10.54 4.98 10.39C6.26 9.97 7.75 9.63 9.39 9.39ZM25.02 10.39C23.74 9.97 22.25 9.63 20.61 9.39C20.37 7.75 20.03 6.26 19.61 4.98C19.46 4.55 19.3 4.13 19.13 3.73C22.44 4.94 25.06 7.56 26.27 10.87C25.87 10.7 25.45 10.54 25.02 10.39ZM9.08 12.48C7.9 12.68 6.83 12.94 5.93 13.24C4.79 13.62 3.98 14.04 3.49 14.43C3.13 14.71 3.02 14.93 3 14.98C2.94828 15.1696 3.24578 15.389 3.41855 15.5164C3.44622 15.5368 3.47068 15.5548 3.49 15.57C3.98 15.96 4.79 16.38 5.93 16.76C6.83 17.06 7.9 17.32 9.08 17.52C8.98 15.88 8.98 14.12 9.08 12.48ZM26.51 14.43C26.66 14.54 26.98 14.78 27 15C27 15.24 26.68 15.44 26.51 15.57C26.02 15.96 25.21 16.38 24.07 16.76C23.17 17.06 22.1 17.32 20.92 17.52C21.02 15.88 21.02 14.12 20.92 12.48C22.1 12.68 23.17 12.94 24.07 13.24C25.21 13.62 26.02 14.04 26.51 14.43ZM12.11 12.11C11.96 14.03 11.96 15.97 12.11 17.89C14.03 18.04 15.97 18.04 17.89 17.89C18.04 15.97 18.04 14.03 17.89 12.11C15.97 11.96 14.03 11.96 12.11 12.11ZM9.39 20.61C9.63 22.25 9.97 23.74 10.39 25.02C10.54 25.45 10.7 25.87 10.87 26.27C7.56 25.06 4.94 22.44 3.73 19.13C4.13 19.3 4.55 19.46 4.98 19.61C6.26 20.03 7.75 20.37 9.39 20.61ZM19.13 26.27C22.44 25.06 25.06 22.44 26.27 19.13C25.87 19.3 25.45 19.46 25.02 19.61C23.74 20.03 22.25 20.37 20.61 20.61C20.37 22.25 20.03 23.74 19.61 25.02C19.46 25.45 19.3 25.87 19.13 26.27ZM13.24 24.07C13.62 25.21 14.04 26.02 14.43 26.51C14.56 26.68 14.76 27 15 27C15.22 26.98 15.46 26.66 15.57 26.51C15.96 26.02 16.38 25.21 16.76 24.07C17.06 23.17 17.32 22.1 17.52 20.92C15.88 21.02 14.12 21.02 12.48 20.92C12.68 22.1 12.94 23.17 13.24 24.07Z" /></g></svg>