<svg xmlns="http://www.w3.org/2000/svg" xmlns:xlink="http://www.w3.org/1999/xlink" width="50px" height="50px" viewBox="0 0 20 18" fill="white"><path id="分组 128" fill-rule="evenodd" style="fill:#FFFFFF" transform="translate(71 307.5)  rotate(0 10 9)" opacity="1" d="M2 0C0.9 0 0 0.89 0 2L0 16C0 17.11 0.9 18 2 18L18 18C19.1 18 20 17.11 20 16L20 4C20 2.89 19.1 2 18 2L10.41 2L8.71 0.29C8.52 0.11 8.27 0 8 0L2 0Z M2 16L18 16L18 4L2 4L2 16Z M11 6L9 6L9 9L6 9L6 11L9 11L9 14L11 14L11 11L14 11L14 9L11 9L11 6Z " /></svg>