<svg xmlns="http://www.w3.org/2000/svg" xmlns:xlink="http://www.w3.org/1999/xlink" width="16" height="20" viewBox="0 0 16 20" fill="none"><path id="分组 135" fill-rule="evenodd" style="fill:#FFFFFF" transform="translate(73 485.5)  rotate(0 8 10.000374999999963)" opacity="1" d="M9.03 0Z M9 0L2 0C0.9 0 0 0.9 0 2L0 18C0 19.1 0.9 20 2 20L14 20C15.1 20 16 19.1 16 18L16 7C16 6.99 15.99 6.99 15.99 6.98L15.99 6.97C15.98 6.97 15.98 6.96 15.98 6.95C15.98 6.86 15.96 6.77 15.93 6.69L15.93 6.67L15.93 6.66C15.92 6.64 15.92 6.62 15.91 6.59C15.86 6.48 15.79 6.39 15.71 6.3L9.71 0.3C9.62 0.22 9.52 0.15 9.41 0.1C9.4 0.08 9.38 0.07 9.36 0.06L9.35 0.06L9.34 0.06L9.32 0.06C9.24 0.03 9.15 0.01 9.06 0.01C9.05 0.01 9.04 0 9.03 0C9.02 0 9.01 0 9 0Z M2 18.0007L14 18.0007L14 8.00075L9 8.00075C8.45 8.00075 8 7.55075 8 7.00075L8 2.00075L2 2.00075L2 18.0007Z M10 6.00475L12.59 6.00475L10 3.41475L10 6.00475Z M7 12.0007L5 12.0007L5 14.0007L7 14.0007L7 16.0007L9 16.0007L9 14.0007L11 14.0007L11 12.0007L9 12.0007L9 10.0007L7 10.0007L7 12.0007Z " /></svg>