<svg xmlns="http://www.w3.org/2000/svg" xmlns:xlink="http://www.w3.org/1999/xlink" width="29" height="30" viewBox="0 0 29 30" fill="none"><path id="分组 65" fill-rule="evenodd" style="fill:#808080" transform="translate(1230 87)  rotate(0 14.5 15)" opacity="1" d="M18.125 27L10.875 27C10.875 28.65 12.505 30 14.505 30C16.495 30 18.125 28.65 18.125 27Z M10.88 0L10.88 3.27C6.2 4.18 3.63 7.56 3.63 12.75L3.63 21L0 22.5L0 25.5L29 25.5L29 22.5L25.38 21L25.38 12.75C25.38 7.56 22.8 4.18 18.13 3.27L18.13 0L10.88 0Z M8.84028 7.80349C7.70028 9.27349 7.16028 11.0135 7.25028 12.7535L7.25028 22.5035L21.7503 22.5035L21.7503 12.7535C21.8403 11.0135 21.3003 9.27349 20.1503 7.80349C18.8503 6.33349 16.7103 5.50349 14.5003 5.62349C12.2903 5.50349 10.1503 6.33349 8.84028 7.80349Z " /></svg>