<svg xmlns="http://www.w3.org/2000/svg" xmlns:xlink="http://www.w3.org/1999/xlink" width="20" height="20" viewBox="0 0 20 20" fill="none"><path id="分组 198" fill-rule="evenodd" style="fill:#FFFFFF" transform="translate(71 424.5)  rotate(0 10 10)" opacity="1" d="M14 18L2 18L2 6L0 6L0 18C0 19.11 0.9 20 2 20L14 20L14 18Z M20 14L20 2C20 0.89 19.1 0 18 0L6 0C4.9 0 4 0.89 4 2L4 14C4 15.11 4.9 16 6 16L18 16C19.1 16 20 15.11 20 14Z M6 14L18 14L18 2L6 2L6 14Z M11 11.56L16.71 5.85L15.29 4.44L11 8.73L8.71 6.44L7.29 7.85L11 11.56L11 11.56Z " /></svg>