<svg xmlns="http://www.w3.org/2000/svg" xmlns:xlink="http://www.w3.org/1999/xlink" width="16" height="20" viewBox="0 0 16 20" fill="none"><path id="分组 143" fill-rule="evenodd" style="fill:#FFFFFF" transform="translate(72 365.5)  rotate(0 8 10)" opacity="1" d="M14 20C15.1 20 16 19.11 16 18L16 7C16 6.99 16 6.98 16 6.97C15.99 6.96 15.99 6.95 15.99 6.94C15.99 6.86 15.97 6.77 15.94 6.69L15.93 6.66C15.93 6.64 15.92 6.62 15.91 6.59C15.86 6.48 15.79 6.38 15.71 6.3L9.71 0.3C9.62 0.22 9.52 0.15 9.41 0.1C9.39 0.09 9.37 0.08 9.35 0.07L9.32 0.06C9.24 0.04 9.15 0.02 9.06 0.01C9.05 0.01 9.04 0.01 9.03 0.01C9.02 0 9.01 0 9 0L2 0C0.9 0 0 0.89 0 2L0 18C0 19.11 0.9 20 2 20L14 20Z M2 18L14 18L14 8L9 8C8.45 8 8 7.55 8 7L8 2L2 2L2 18Z M10 6.004L12.59 6.004L10 3.414L10 6.004Z " /></svg>