<svg xmlns="http://www.w3.org/2000/svg" xmlns:xlink="http://www.w3.org/1999/xlink" width="59" height="57" viewBox="0 0 59 57" fill="none"><defs><linearGradient id="linear_0" x1="100%" y1="100%" x2="101%" y2="0%" gradientUnits="objectBoundingBox"><stop offset="0" stop-color="#20B038" stop-opacity="1" /><stop offset="1" stop-color="#60D66A" stop-opacity="1" /></linearGradient><linearGradient id="linear_1" x1="100%" y1="100%" x2="101%" y2="0%" gradientUnits="objectBoundingBox"><stop offset="0" stop-color="#20B038" stop-opacity="1" /><stop offset="1" stop-color="#60D66A" stop-opacity="1" /></linearGradient><filter id="filter_8" x="-24" y="-24" width="96" height="96" filterUnits="userSpaceOnUse" color-interpolation-filters="sRGB"><feFlood flood-opacity="0" result="BackgroundImageFix"/>
          <feColorMatrix in="SourceAlpha" type="matrix" values="0 0 0 0 0 0 0 0 0 0 0 0 0 0 0 0 0 0 127 0"/>
          <feOffset dx="0" dy="2"/>
          <feGaussianBlur stdDeviation="2"/>
          <feColorMatrix type="matrix" values="0 0 0 0 0 0 0 0 0 0 0 0 0 0 0 0 0 0 0.12 0"/>
          <feBlend mode="normal" in2="BackgroundImageFix" result="effect1_Shadow"/>
          <feBlend mode="normal" in="SourceGraphic" in2="effect1_Shadow" result="shape"/><feFlood flood-opacity="0" result="BackgroundImageFix"/>
          <feBlend mode="normal" in="SourceGraphic" in2="BackgroundImageFix" result="shape"/>
          <feColorMatrix in="SourceAlpha" type="matrix" values="0 0 0 0 0 0 0 0 0 0 0 0 0 0 0 0 0 0 127 0" result="hardAlpha"/>
          <feOffset dx="8" dy="8"/>
          <feGaussianBlur stdDeviation="12"/>
          <feComposite in2="hardAlpha" operator="arithmetic" k2="-1" k3="1"/>
          <feColorMatrix type="matrix" values="0 0 0 0 1 0 0 0 0 1 0 0 0 0 1 0 0 0 1 0"/>
          <feBlend mode="normal" in2="shape" result="effect1_Shadow"/><feFlood flood-opacity="0" result="BackgroundImageFix"/>
          <feBlend mode="normal" in="SourceGraphic" in2="BackgroundImageFix" result="shape"/>
          <feColorMatrix in="SourceAlpha" type="matrix" values="0 0 0 0 0 0 0 0 0 0 0 0 0 0 0 0 0 0 127 0" result="hardAlpha"/>
          <feOffset dx="-4" dy="-4"/>
          <feGaussianBlur stdDeviation="12"/>
          <feComposite in2="hardAlpha" operator="arithmetic" k2="-1" k3="1"/>
          <feColorMatrix type="matrix" values="0 0 0 0 1 0 0 0 0 1 0 0 0 0 1 0 0 0 0.04 0"/>
          <feBlend mode="normal" in2="shape" result="effect1_Shadow"/></filter><filter id="filter_9" x="-10.87" y="-10.87" width="69.74" height="69.74" filterUnits="userSpaceOnUse" color-interpolation-filters="sRGB"><feFlood flood-opacity="0" result="BackgroundImageFix"/>
          <feGaussianBlur in="BackgroundImage" stdDeviation="5.435"/>
          <feComposite in2="SourceAlpha" operator="in" result="effect1_backgroundBlur"/>
          <feBlend mode="normal" in="SourceGraphic" in2="effect1_backgroundBlur" result="shape"/></filter><linearGradient id="linear_2" x1="100%" y1="100%" x2="101%" y2="0%" gradientUnits="objectBoundingBox"><stop offset="0" stop-color="#20B038" stop-opacity="1" /><stop offset="1" stop-color="#60D66A" stop-opacity="1" /></linearGradient><filter id="filter_13" x="0" y="0" width="32" height="32" filterUnits="userSpaceOnUse" color-interpolation-filters="sRGB"><feFlood flood-opacity="0" result="BackgroundImageFix"/>
          <feBlend mode="normal" in="SourceGraphic" in2="BackgroundImageFix" result="shape"/>
          <feGaussianBlur stdDeviation="5.435" result="effect1_foregroundBlur" /></filter><linearGradient id="linear_3" x1="100%" y1="100%" x2="101%" y2="0%" gradientUnits="objectBoundingBox"><stop offset="0" stop-color="#20B038" stop-opacity="1" /><stop offset="1" stop-color="#60D66A" stop-opacity="1" /></linearGradient><filter id="filter_15" x="0" y="0" width="32.12" height="32" filterUnits="userSpaceOnUse" color-interpolation-filters="sRGB"><feFlood flood-opacity="0" result="BackgroundImageFix"/>
          <feBlend mode="normal" in="SourceGraphic" in2="BackgroundImageFix" result="shape"/>
          <feGaussianBlur stdDeviation="5.435" result="effect1_foregroundBlur" /></filter><linearGradient id="linear_4" x1="100%" y1="100%" x2="101%" y2="0%" gradientUnits="objectBoundingBox"><stop offset="0" stop-color="#20B038" stop-opacity="1" /><stop offset="1" stop-color="#60D66A" stop-opacity="1" /></linearGradient><filter id="filter_18" x="-4" y="-4" width="40" height="36" filterUnits="userSpaceOnUse" color-interpolation-filters="sRGB"><feFlood flood-opacity="0" result="BackgroundImageFix"/>
          <feColorMatrix in="SourceAlpha" type="matrix" values="0 0 0 0 0 0 0 0 0 0 0 0 0 0 0 0 0 0 127 0"/>
          <feOffset dx="0" dy="-2"/>
          <feGaussianBlur stdDeviation="2"/>
          <feColorMatrix type="matrix" values="0 0 0 0 1 0 0 0 0 1 0 0 0 0 1 0 0 0 1 0"/>
          <feBlend mode="normal" in2="BackgroundImageFix" result="effect1_Shadow"/>
          <feBlend mode="normal" in="SourceGraphic" in2="effect1_Shadow" result="shape"/></filter></defs><g opacity="1" transform="translate(4 2)  rotate(0 24 24)"><g opacity="1" transform="translate(8 8)  rotate(0 16 16)"><path id="2" fill-rule="evenodd" fill="url(#linear_0)" transform="translate(0 0)  rotate(0 16 16)" opacity="1" d="M16.06 31.73L16.07 31.73C24.85 31.73 32 24.61 32 15.87C32 11.66 30.32 7.62 27.34 4.65C24.35 1.67 20.29 0 16.07 0C7.28 0 0.14 7.11 0.13 15.86C0.13 18.64 0.86 21.37 2.26 23.78L0 32L8.45 29.8C10.78 31.06 13.4 31.73 16.06 31.73Z M16.06 29.05L16.07 29.05C23.37 29.05 29.31 23.14 29.31 15.87C29.31 8.59 23.39 2.68 16.07 2.68C8.76 2.68 2.82 8.59 2.82 15.86C2.82 18.34 3.52 20.77 4.84 22.87L5.16 23.37L3.82 28.24L8.83 26.93L9.32 27.21C11.36 28.42 13.69 29.05 16.06 29.05Z " /><path id="1" fill-rule="evenodd" fill="url(#linear_1)" transform="translate(7.97 8.53)  rotate(0 8.09 7.47)" opacity="1" d="M4.11,0.69C3.82,0.03 3.5,0.02 3.22,0.01C2.99,0 2.72,0 2.46,0C2.05,0.01 1.66,0.19 1.39,0.5C1.03,0.89 0,1.85 0,3.8C0,5.75 1.43,7.64 1.63,7.9C1.82,8.17 4.38,12.29 8.43,13.88C11.79,15.2 12.47,14.94 13.2,14.87C13.93,14.81 15.56,13.92 15.89,12.99C16.22,12.06 16.22,11.27 16.12,11.11C16.02,10.94 15.76,10.84 15.36,10.64C14.96,10.45 13,9.49 12.64,9.35C12.27,9.22 12.01,9.16 11.74,9.55C11.48,9.95 10.72,10.84 10.48,11.11C10.25,11.37 10.02,11.4 9.62,11.21C9.22,11.01 7.94,10.59 6.42,9.24C5.24,8.19 4.44,6.89 4.2,6.49C3.97,6.1 4.18,5.88 4.38,5.69C4.56,5.51 4.78,5.22 4.98,4.99C5.18,4.76 5.24,4.59 5.37,4.33C5.51,4.07 5.44,3.83 5.34,3.64C5.24,3.44 4.47,1.48 4.11,0.69Z " /></g><g id="Box" filter="url(#filter_9)"><g id="Box" filter="url(#filter_8)"><path id="Box" fill-rule="evenodd" style="fill:#FFFFFF" transform="translate(0 0)  rotate(0 24 24)" opacity="0.53" d="M12,48L36,48C42.63,48 48,42.63 48,36L48,12C48,5.37 42.63,0 36,0L12,0C5.37,0 0,5.37 0,12L0,36C0,42.63 5.37,48 12,48Z " /></g></g><g opacity="1" transform="translate(12 12)  rotate(0 16 16)"><g id="2" filter="url(#filter_13)"><path id="2" fill-rule="evenodd" fill="url(#linear_2)" transform="translate(0 0)  rotate(0 16 16)" opacity="0.5289" d="M0 32L8.45 29.8C10.78 31.06 13.4 31.73 16.06 31.73L16.07 31.73C24.85 31.73 32 24.61 32 15.87C32 11.66 30.32 7.62 27.34 4.65C24.35 1.67 20.29 0 16.07 0C7.28 0 0.14 7.11 0.13 15.86C0.13 18.64 0.86 21.37 2.26 23.78L0 32Z M3.82 28.24L8.83 26.93L9.32 27.21C11.36 28.42 13.69 29.05 16.06 29.05L16.07 29.05C23.37 29.05 29.31 23.14 29.31 15.87C29.31 8.59 23.39 2.68 16.07 2.68C8.76 2.68 2.82 8.59 2.82 15.86C2.82 18.34 3.52 20.77 4.84 22.87L5.16 23.37L3.82 28.24Z " /></g><g id="1" filter="url(#filter_15)"><path id="1" fill-rule="evenodd" fill="url(#linear_3)" transform="translate(7.97 8.53)  rotate(0 8.09 7.47)" opacity="0.5289" d="M0,3.8C0,5.75 1.43,7.64 1.63,7.9C1.82,8.17 4.38,12.29 8.43,13.88C11.79,15.2 12.47,14.94 13.2,14.87C13.93,14.81 15.56,13.92 15.89,12.99C16.22,12.06 16.22,11.27 16.12,11.11C16.02,10.94 15.76,10.84 15.36,10.64C14.96,10.45 13,9.49 12.64,9.35C12.27,9.22 12.01,9.16 11.74,9.55C11.48,9.95 10.72,10.84 10.48,11.11C10.25,11.37 10.02,11.4 9.62,11.21C9.22,11.01 7.94,10.59 6.42,9.24C5.24,8.19 4.44,6.89 4.2,6.49C3.97,6.1 4.18,5.88 4.38,5.69C4.56,5.51 4.78,5.22 4.98,4.99C5.18,4.76 5.24,4.59 5.37,4.33C5.51,4.07 5.44,3.83 5.34,3.64C5.24,3.44 4.47,1.48 4.11,0.69C3.82,0.03 3.5,0.02 3.22,0.01C2.99,0 2.72,0 2.46,0C2.05,0.01 1.66,0.19 1.39,0.5C1.03,0.89 0,1.85 0,3.8Z " /></g></g><g opacity="1" transform="translate(8 10)  rotate(0 16 14)"><g id="2" filter="url(#filter_18)"><path id="2" fill-rule="evenodd" fill="url(#linear_4)" transform="translate(0 0)  rotate(0 16 14)" opacity="1" d="M8.45 26.07C10.78 27.18 13.4 27.76 16.06 27.76L16.07 27.76C24.85 27.76 32 21.53 32 13.89C32 10.2 30.32 6.67 27.34 4.07C24.35 1.46 20.29 0 16.07 0C7.28 0 0.14 6.22 0.13 13.87C0.13 16.31 0.86 18.7 2.26 20.81L0 28L8.45 26.07Z M16.06 25.415L16.07 25.415C23.37 25.415 29.31 20.245 29.31 13.885C29.31 7.515 23.39 2.345 16.07 2.345C8.76 2.345 2.82 7.515 2.82 13.875C2.82 16.045 3.52 18.175 4.84 20.015L5.16 20.455L3.82 24.705L8.83 23.565L9.32 23.815C11.36 24.865 13.69 25.415 16.06 25.415Z " /></g></g></g></svg>